<svg width="249" height="24" viewBox="0 0 249 24" fill="none" xmlns="http://www.w3.org/2000/svg">
<g clip-path="url(#clip0_1190_21476)">
<path d="M18.041 19.6886C19.166 19.6886 19.916 19.3829 20.321 18.4979L20.9341 17.1048L14.2666 0.437943H18.8923L23.1785 11.8755L27.4629 0.437943H32.1223L24.4029 19.5629C23.1785 22.6473 20.9998 23.4648 18.1872 23.5323C17.4671 23.5188 16.7497 23.4391 16.0441 23.2942L16.6872 19.4167C17.1193 19.5918 17.5804 19.6841 18.0466 19.6886H18.041Z" fill="#FF8300"/>
<path d="M1.92 11.9654C3.13875 13.1167 5.65125 14.2679 7.74563 14.2679C9.66375 14.2679 10.5694 13.6061 10.5694 12.5598C10.5694 11.3729 9.105 10.9548 7.19438 10.5704C4.29 10.0117 0.5625 9.3142 0.5625 5.30358C0.5625 2.47796 3.03562 0.0010837 7.46625 0.0010837C9.92987 -0.0326175 12.3304 0.780149 14.2669 2.30358L12.4875 5.34483C11.4769 4.25733 9.5625 3.38546 7.5 3.38546C5.89687 3.38546 4.84875 3.97795 4.84875 4.95483C4.84875 6.00108 6.17438 6.38545 8.05875 6.76795C10.9537 7.33045 14.8256 8.09357 14.8256 12.2804C14.8256 15.3498 12.21 17.6861 7.53562 17.6861C4.605 17.6861 1.77937 16.7111 0 15.0704L1.92 11.9654Z" fill="#FF8300"/>
<path d="M43.8751 7.08305C43.8751 4.74493 42.6545 3.9443 40.772 3.9443C40.022 3.95268 39.2844 4.13686 38.6186 4.48205C37.9526 4.82722 37.3769 5.32378 36.9376 5.9318V17.2681H32.5107V0.4193H36.9376V2.6168C38.0232 1.3268 40.0801 0.00117493 42.8364 0.00117493C46.5339 0.00117493 48.3132 2.09368 48.3132 5.37305V17.2681H43.8751V7.08305Z" fill="#FF8300"/>
<path d="M58.1533 0.00117493C61.6071 0.00117493 63.6995 1.50117 64.8151 3.0368L61.9221 5.75742C61.1196 4.57055 59.8971 3.9443 58.3596 3.9443C55.6727 3.9443 53.7884 5.89617 53.7884 8.8193C53.7884 11.7424 55.6765 13.7449 58.3633 13.7449C59.0605 13.7576 59.7499 13.5987 60.3713 13.2822C60.9924 12.9657 61.5262 12.5013 61.9258 11.9299L64.8189 14.6168C63.7033 16.188 61.6108 17.688 58.1571 17.688C52.9597 17.688 49.2266 14.0243 49.2266 8.8268C49.2228 3.65742 52.9559 0.00117493 58.1533 0.00117493Z" fill="#FF8300"/>
<path d="M106.391 7.08305C106.391 4.74493 105.169 3.9443 103.286 3.9443C102.536 3.9521 101.798 4.13602 101.132 4.48123C100.465 4.82643 99.8893 5.32331 99.4502 5.9318V17.2681H95.0195V0.4193H99.4502V2.6168C100.532 1.3268 102.589 0.00117493 105.345 0.00117493C109.043 0.00117493 110.822 2.09368 110.822 5.37305V17.2681H106.391V7.08305Z" fill="#FF8300"/>
<path d="M70.3984 2.71981V0.419197H65.9678V17.2679H70.3984V6.05918C71.5121 4.80106 73.4997 3.96294 75.7497 3.96294H75.7646V0.0366974C73.6759 0.0366974 71.5834 1.21982 70.3984 2.71981Z" fill="#FF8300"/>
<path d="M80.5648 11.4929H76.1792L74.6455 8.83607L79.4979 0.432327H89.2027L91.2989 4.06045H81.7272L79.106 8.83607L80.5648 11.4929Z" fill="#FF8300"/>
<path d="M94.0561 8.83607L89.2036 17.2417H79.4986L77.4023 13.6098H86.9742L89.5955 8.83607L88.1348 6.17732H92.5223L94.0561 8.83607Z" fill="#FF8300"/>
</g>
<g clip-path="url(#clip1_1190_21476)">
<path d="M125.092 4.61083C124.995 3.63924 124.566 2.86651 123.805 2.29264C123.043 1.71878 122.086 1.43185 120.933 1.43185C120.12 1.43185 119.404 1.57105 118.785 1.84946C118.171 2.12787 117.688 2.51424 117.336 3.00855C116.989 3.49719 116.816 4.05401 116.816 4.67901C116.816 5.13924 116.916 5.54265 117.114 5.88924C117.313 6.23583 117.58 6.53412 117.916 6.78412C118.256 7.02844 118.631 7.23867 119.041 7.4148C119.455 7.59094 119.873 7.73867 120.293 7.85799L122.134 8.3864C122.691 8.5398 123.248 8.73583 123.805 8.97446C124.362 9.2131 124.87 9.51424 125.33 9.87787C125.796 10.2358 126.168 10.6762 126.447 11.1989C126.731 11.7159 126.873 12.3381 126.873 13.0654C126.873 13.9972 126.631 14.8353 126.148 15.5796C125.666 16.3239 124.972 16.9148 124.069 17.3523C123.166 17.7841 122.083 18 120.822 18C119.634 18 118.603 17.804 117.728 17.412C116.853 17.0142 116.166 16.4659 115.666 15.7671C115.166 15.0682 114.884 14.2586 114.822 13.3381H116.458C116.515 14.0256 116.742 14.608 117.14 15.0853C117.538 15.5625 118.055 15.9262 118.691 16.1762C119.327 16.4205 120.038 16.5426 120.822 16.5426C121.691 16.5426 122.464 16.3978 123.14 16.108C123.822 15.8125 124.356 15.4034 124.742 14.8807C125.134 14.3523 125.33 13.7387 125.33 13.0398C125.33 12.4489 125.177 11.9546 124.87 11.5568C124.563 11.1534 124.134 10.8154 123.583 10.5426C123.038 10.2699 122.404 10.0284 121.683 9.81821L119.594 9.20458C118.225 8.79549 117.163 8.23014 116.407 7.50855C115.651 6.78696 115.273 5.86651 115.273 4.74719C115.273 3.80969 115.523 2.98583 116.023 2.2756C116.529 1.55969 117.211 1.00287 118.069 0.605145C118.933 0.201735 119.901 3.09944e-05 120.975 3.09944e-05C122.06 3.09944e-05 123.021 0.198895 123.856 0.596623C124.691 0.99435 125.353 1.54264 125.842 2.24151C126.336 2.93469 126.6 3.72446 126.634 4.61083H125.092ZM136.791 12.6989V4.61083H138.308V17.7017H136.791V15.5284H136.672C136.365 16.1989 135.879 16.7586 135.214 17.2074C134.549 17.6506 133.737 17.8722 132.777 17.8722C131.942 17.8722 131.2 17.6904 130.552 17.3267C129.905 16.9574 129.396 16.4176 129.027 15.7074C128.657 14.9972 128.473 14.125 128.473 13.0909V4.61083H129.99V12.9972C129.99 14.0199 130.291 14.8438 130.893 15.4688C131.496 16.0881 132.268 16.3978 133.211 16.3978C133.802 16.3978 134.371 16.2557 134.916 15.9716C135.461 15.6875 135.91 15.2728 136.263 14.7273C136.615 14.1762 136.791 13.5 136.791 12.6989ZM140.404 22.6108V4.61083H141.879V7.10799H142.058C142.24 6.71594 142.49 6.31537 142.808 5.90628C143.126 5.49151 143.546 5.14208 144.069 4.85799C144.598 4.5739 145.262 4.43185 146.063 4.43185C147.143 4.43185 148.086 4.71594 148.893 5.28412C149.705 5.84662 150.336 6.63639 150.785 7.65344C151.24 8.6648 151.467 9.84378 151.467 11.1904C151.467 12.5426 151.24 13.7273 150.785 14.7443C150.336 15.7614 149.705 16.554 148.893 17.1222C148.086 17.6904 147.149 17.9745 146.08 17.9745C145.291 17.9745 144.629 17.8324 144.095 17.5483C143.566 17.2642 143.137 16.9148 142.808 16.5C142.484 16.0796 142.234 15.6705 142.058 15.2728H141.921V22.6108H140.404ZM141.904 11.1648C141.904 12.2216 142.061 13.1591 142.373 13.9773C142.691 14.7898 143.146 15.429 143.737 15.8949C144.333 16.3551 145.055 16.5853 145.902 16.5853C146.771 16.5853 147.504 16.3466 148.1 15.8693C148.703 15.3864 149.16 14.7358 149.473 13.9176C149.791 13.0995 149.95 12.1818 149.95 11.1648C149.95 10.1591 149.794 9.25287 149.481 8.44605C149.174 7.63924 148.72 7.00003 148.117 6.52844C147.515 6.05117 146.777 5.81253 145.902 5.81253C145.049 5.81253 144.325 6.04265 143.728 6.50287C143.132 6.95742 142.677 7.5881 142.365 8.39492C142.058 9.19605 141.904 10.1193 141.904 11.1648ZM152.875 22.6108V4.61083H154.349V7.10799H154.528C154.71 6.71594 154.96 6.31537 155.278 5.90628C155.597 5.49151 156.017 5.14208 156.54 4.85799C157.068 4.5739 157.733 4.43185 158.534 4.43185C159.614 4.43185 160.557 4.71594 161.364 5.28412C162.176 5.84662 162.807 6.63639 163.256 7.65344C163.71 8.6648 163.937 9.84378 163.937 11.1904C163.937 12.5426 163.71 13.7273 163.256 14.7443C162.807 15.7614 162.176 16.554 161.364 17.1222C160.557 17.6904 159.619 17.9745 158.551 17.9745C157.761 17.9745 157.099 17.8324 156.565 17.5483C156.037 17.2642 155.608 16.9148 155.278 16.5C154.955 16.0796 154.705 15.6705 154.528 15.2728H154.392V22.6108H152.875ZM154.375 11.1648C154.375 12.2216 154.531 13.1591 154.844 13.9773C155.162 14.7898 155.616 15.429 156.207 15.8949C156.804 16.3551 157.526 16.5853 158.372 16.5853C159.241 16.5853 159.974 16.3466 160.571 15.8693C161.173 15.3864 161.631 14.7358 161.943 13.9176C162.261 13.0995 162.42 12.1818 162.42 11.1648C162.42 10.1591 162.264 9.25287 161.952 8.44605C161.645 7.63924 161.19 7.00003 160.588 6.52844C159.986 6.05117 159.247 5.81253 158.372 5.81253C157.52 5.81253 156.795 6.04265 156.199 6.50287C155.602 6.95742 155.148 7.5881 154.835 8.39492C154.528 9.19605 154.375 10.1193 154.375 11.1648ZM166.863 0.24719V17.7017H165.346V0.24719H166.863ZM168.974 17.7017V4.61083H170.499V17.7017H168.974ZM169.749 2.36083C169.437 2.36083 169.17 2.25571 168.948 2.04549C168.727 1.82958 168.616 1.57105 168.616 1.26992C168.616 0.968781 168.727 0.7131 168.948 0.502873C169.17 0.286963 169.437 0.179008 169.749 0.179008C170.062 0.179008 170.329 0.286963 170.551 0.502873C170.772 0.7131 170.883 0.968781 170.883 1.26992C170.883 1.57105 170.772 1.82958 170.551 2.04549C170.329 2.25571 170.062 2.36083 169.749 2.36083ZM177.884 17.9745C176.663 17.9745 175.606 17.6904 174.714 17.1222C173.822 16.5483 173.131 15.7557 172.643 14.7443C172.16 13.7273 171.918 12.5568 171.918 11.233C171.918 9.9148 172.16 8.74435 172.643 7.72162C173.131 6.69321 173.805 5.88924 174.663 5.30969C175.526 4.72446 176.523 4.43185 177.654 4.43185C178.364 4.43185 179.049 4.56253 179.708 4.82389C180.367 5.07958 180.958 5.47446 181.481 6.00855C182.009 6.53696 182.427 7.20458 182.734 8.0114C183.04 8.81253 183.194 9.7614 183.194 10.858V11.608H172.967V10.2699H181.643C181.643 9.42901 181.472 8.67333 181.131 8.00287C180.796 7.32674 180.327 6.79265 179.725 6.4006C179.128 6.00855 178.438 5.81253 177.654 5.81253C176.824 5.81253 176.094 6.03412 175.464 6.4773C174.833 6.92049 174.339 7.50571 173.981 8.23299C173.628 8.96026 173.449 9.75571 173.444 10.6193V11.4205C173.444 12.4603 173.623 13.3694 173.981 14.1478C174.344 14.9205 174.859 15.5199 175.523 15.9461C176.188 16.3722 176.975 16.5853 177.884 16.5853C178.503 16.5853 179.046 16.4887 179.512 16.2955C179.984 16.1023 180.378 15.8438 180.697 15.5199C181.021 15.1904 181.265 14.8296 181.43 14.4375L182.87 14.9063C182.671 15.4574 182.344 15.9659 181.89 16.4319C181.441 16.8978 180.878 17.2728 180.202 17.5569C179.532 17.8353 178.759 17.9745 177.884 17.9745ZM184.617 17.7017V4.61083H186.091V6.62219H186.202C186.463 5.9631 186.918 5.43185 187.566 5.02844C188.219 4.61935 188.958 4.4148 189.782 4.4148C189.907 4.4148 190.046 4.41764 190.199 4.42333C190.353 4.42901 190.48 4.43469 190.583 4.44037V5.98299C190.515 5.97162 190.395 5.95458 190.225 5.93185C190.054 5.90912 189.87 5.89776 189.671 5.89776C188.989 5.89776 188.381 6.04265 187.847 6.33242C187.319 6.61651 186.901 7.01139 186.594 7.51708C186.287 8.02276 186.134 8.59946 186.134 9.24719V17.7017H184.617ZM196.397 17.7017V0.24719H202.03C203.269 0.24719 204.303 0.485827 205.133 0.9631C205.968 1.43469 206.596 2.07674 207.016 2.88924C207.442 3.70174 207.655 4.61651 207.655 5.63355C207.655 6.6506 207.445 7.56821 207.025 8.3864C206.604 9.1989 205.979 9.84378 205.15 10.3211C204.32 10.7926 203.289 11.0284 202.056 11.0284H197.624V9.59662H202.013C202.928 9.59662 203.687 9.42617 204.289 9.08526C204.891 8.73867 205.34 8.26708 205.636 7.67049C205.937 7.0739 206.087 6.39492 206.087 5.63355C206.087 4.87219 205.937 4.19321 205.636 3.59662C205.34 3.00003 204.888 2.53128 204.28 2.19037C203.678 1.84946 202.914 1.67901 201.988 1.67901H197.991V17.7017H196.397ZM214.109 17.9745C212.978 17.9745 211.978 17.6875 211.109 17.1137C210.245 16.5398 209.569 15.7472 209.081 14.7358C208.592 13.7188 208.348 12.5455 208.348 11.2159C208.348 9.87503 208.592 8.69605 209.081 7.67901C209.569 6.65628 210.245 5.86083 211.109 5.29264C211.978 4.71878 212.978 4.43185 214.109 4.43185C215.24 4.43185 216.237 4.71878 217.1 5.29264C217.964 5.86651 218.64 6.66196 219.129 7.67901C219.623 8.69605 219.87 9.87503 219.87 11.2159C219.87 12.5455 219.626 13.7188 219.137 14.7358C218.649 15.7472 217.97 16.5398 217.1 17.1137C216.237 17.6875 215.24 17.9745 214.109 17.9745ZM214.109 16.5853C215.018 16.5853 215.788 16.3409 216.419 15.8523C217.049 15.3637 217.527 14.7131 217.85 13.9006C218.18 13.0881 218.345 12.1932 218.345 11.2159C218.345 10.2387 218.18 9.34094 217.85 8.52276C217.527 7.70458 217.049 7.04833 216.419 6.55401C215.788 6.05969 215.018 5.81253 214.109 5.81253C213.206 5.81253 212.436 6.05969 211.799 6.55401C211.169 7.04833 210.689 7.70458 210.359 8.52276C210.035 9.34094 209.873 10.2387 209.873 11.2159C209.873 12.1932 210.035 13.0881 210.359 13.9006C210.689 14.7131 211.169 15.3637 211.799 15.8523C212.43 16.3409 213.2 16.5853 214.109 16.5853ZM221.281 17.7017V4.61083H222.755V6.62219H222.866C223.127 5.9631 223.582 5.43185 224.229 5.02844C224.883 4.61935 225.622 4.4148 226.445 4.4148C226.57 4.4148 226.71 4.41764 226.863 4.42333C227.016 4.42901 227.144 4.43469 227.247 4.44037V5.98299C227.178 5.97162 227.059 5.95458 226.889 5.93185C226.718 5.90912 226.533 5.89776 226.335 5.89776C225.653 5.89776 225.045 6.04265 224.511 6.33242C223.982 6.61651 223.565 7.01139 223.258 7.51708C222.951 8.02276 222.798 8.59946 222.798 9.24719V17.7017H221.281ZM233.892 4.61083V5.93185H227.645V4.61083H233.892ZM229.596 1.47446H231.122V14.2841C231.122 14.8296 231.216 15.2586 231.403 15.5711C231.591 15.8779 231.835 16.0966 232.136 16.2273C232.437 16.3523 232.758 16.4148 233.099 16.4148C233.298 16.4148 233.469 16.4034 233.611 16.3807C233.753 16.3523 233.878 16.3239 233.986 16.2955L234.309 17.6676C234.162 17.7245 233.98 17.7756 233.764 17.8211C233.548 17.8722 233.281 17.8978 232.963 17.8978C232.406 17.8978 231.869 17.7756 231.352 17.5313C230.841 17.287 230.42 16.9233 230.091 16.4404C229.761 15.9574 229.596 15.358 229.596 14.6421V1.47446ZM239.073 18C238.284 18 237.562 17.8466 236.909 17.5398C236.255 17.2273 235.735 16.7784 235.349 16.1932C234.963 15.6023 234.769 14.8864 234.769 14.0455C234.769 13.3978 234.892 12.8523 235.136 12.4091C235.38 11.9659 235.727 11.6023 236.176 11.3182C236.625 11.0341 237.156 10.8097 237.769 10.6449C238.383 10.4801 239.059 10.3523 239.798 10.2614C240.531 10.1705 241.15 10.0909 241.656 10.0228C242.167 9.95458 242.556 9.84662 242.823 9.6989C243.09 9.55117 243.224 9.31253 243.224 8.98299V8.67617C243.224 7.78412 242.957 7.08242 242.423 6.57105C241.894 6.05401 241.133 5.79549 240.139 5.79549C239.196 5.79549 238.426 6.00287 237.829 6.41765C237.238 6.83242 236.823 7.32105 236.585 7.88355L235.144 7.36367C235.44 6.64776 235.849 6.07674 236.372 5.6506C236.894 5.21878 237.48 4.90912 238.127 4.72162C238.775 4.52844 239.431 4.43185 240.096 4.43185C240.596 4.43185 241.116 4.49719 241.656 4.62787C242.201 4.75855 242.707 4.98583 243.173 5.30969C243.639 5.62787 244.017 6.0739 244.306 6.64776C244.596 7.21594 244.741 7.93753 244.741 8.81253V17.7017H243.224V15.6307H243.13C242.948 16.0171 242.679 16.3921 242.321 16.7557C241.963 17.1194 241.514 17.4176 240.974 17.6506C240.434 17.8836 239.801 18 239.073 18ZM239.278 16.6108C240.085 16.6108 240.784 16.4319 241.375 16.0739C241.965 15.7159 242.42 15.2415 242.738 14.6506C243.062 14.054 243.224 13.3978 243.224 12.6818V10.7898C243.11 10.8978 242.92 10.9943 242.653 11.0796C242.392 11.1648 242.088 11.2415 241.741 11.3097C241.4 11.3722 241.059 11.4262 240.718 11.4716C240.377 11.5171 240.071 11.5568 239.798 11.5909C239.059 11.6818 238.429 11.8239 237.906 12.0171C237.383 12.2103 236.983 12.4773 236.704 12.8182C236.426 13.1534 236.286 13.5853 236.286 14.1137C236.286 14.9091 236.571 15.5256 237.139 15.9631C237.707 16.3949 238.42 16.6108 239.278 16.6108ZM248.374 0.24719V17.7017H246.857V0.24719H248.374Z" fill="#FF8300"/>
<path d="M125.092 4.61087C124.995 3.63928 124.566 2.86655 123.805 2.29269C123.044 1.71883 122.086 1.4319 120.933 1.4319C120.12 1.4319 119.404 1.5711 118.785 1.84951C118.171 2.12792 117.688 2.51428 117.336 3.0086C116.99 3.49724 116.816 4.05405 116.816 4.67905C116.816 5.13928 116.916 5.54269 117.115 5.88928C117.313 6.23587 117.581 6.53417 117.916 6.78417C118.257 7.02849 118.632 7.23871 119.041 7.41485C119.456 7.59099 119.873 7.73871 120.294 7.85803L122.135 8.38644C122.691 8.53985 123.248 8.73587 123.805 8.97451C124.362 9.21314 124.87 9.51428 125.331 9.87792C125.796 10.2359 126.169 10.6762 126.447 11.1989C126.731 11.716 126.873 12.3381 126.873 13.0654C126.873 13.9972 126.632 14.8353 126.149 15.5796C125.666 16.3239 124.973 16.9149 124.069 17.3524C123.166 17.7842 122.083 18.0001 120.822 18.0001C119.635 18.0001 118.603 17.8041 117.728 17.412C116.853 17.0143 116.166 16.466 115.666 15.7671C115.166 15.0683 114.885 14.2586 114.822 13.3381H116.458C116.515 14.0256 116.742 14.608 117.14 15.0853C117.538 15.5626 118.055 15.9262 118.691 16.1762C119.328 16.4205 120.038 16.5427 120.822 16.5427C121.691 16.5427 122.464 16.3978 123.14 16.108C123.822 15.8126 124.356 15.4035 124.742 14.8808C125.135 14.3524 125.331 13.7387 125.331 13.0399C125.331 12.4489 125.177 11.9546 124.87 11.5569C124.563 11.1535 124.135 10.8154 123.583 10.5427C123.038 10.27 122.404 10.0285 121.683 9.81826L119.595 9.20462C118.225 8.79553 117.163 8.23019 116.407 7.5086C115.652 6.78701 115.274 5.86655 115.274 4.74724C115.274 3.80974 115.524 2.98587 116.024 2.27565C116.529 1.55974 117.211 1.00292 118.069 0.60519C118.933 0.201781 119.902 7.62939e-05 120.975 7.62939e-05C122.061 7.62939e-05 123.021 0.19894 123.856 0.596668C124.691 0.994395 125.353 1.54269 125.842 2.24155C126.336 2.93474 126.6 3.72451 126.635 4.61087H125.092Z" fill="#FF8300"/>
<path d="M136.791 12.6989V4.61087H138.308V17.7018H136.791V15.5285H136.672C136.365 16.1989 135.879 16.7586 135.215 17.2075C134.55 17.6506 133.737 17.8722 132.777 17.8722C131.942 17.8722 131.2 17.6904 130.553 17.3268C129.905 16.9575 129.396 16.4177 129.027 15.7075C128.658 14.9972 128.473 14.1251 128.473 13.091V4.61087H129.99V12.9972C129.99 14.02 130.291 14.8438 130.893 15.4688C131.496 16.0881 132.268 16.3978 133.212 16.3978C133.803 16.3978 134.371 16.2558 134.916 15.9717C135.462 15.6876 135.911 15.2728 136.263 14.7274C136.615 14.1762 136.791 13.5001 136.791 12.6989Z" fill="#FF8300"/>
<path d="M140.405 22.6109V4.61087H141.879V7.10803H142.058C142.24 6.71599 142.49 6.31542 142.808 5.90633C143.126 5.49155 143.547 5.14212 144.069 4.85803C144.598 4.57394 145.263 4.4319 146.064 4.4319C147.143 4.4319 148.086 4.71599 148.893 5.28417C149.706 5.84667 150.336 6.63644 150.785 7.65349C151.24 8.66485 151.467 9.84383 151.467 11.1904C151.467 12.5427 151.24 13.7274 150.785 14.7444C150.336 15.7614 149.706 16.5541 148.893 17.1222C148.086 17.6904 147.149 17.9745 146.081 17.9745C145.291 17.9745 144.629 17.8325 144.095 17.5484C143.567 17.2643 143.138 16.9149 142.808 16.5001C142.484 16.0796 142.234 15.6705 142.058 15.2728H141.922V22.6109H140.405ZM141.905 11.1649C141.905 12.2217 142.061 13.1592 142.373 13.9774C142.692 14.7899 143.146 15.4291 143.737 15.895C144.334 16.3552 145.055 16.5853 145.902 16.5853C146.771 16.5853 147.504 16.3467 148.101 15.8694C148.703 15.3864 149.16 14.7359 149.473 13.9177C149.791 13.0995 149.95 12.1819 149.95 11.1649C149.95 10.1592 149.794 9.25292 149.481 8.4461C149.174 7.63928 148.72 7.00008 148.118 6.52849C147.515 6.05121 146.777 5.81258 145.902 5.81258C145.049 5.81258 144.325 6.04269 143.728 6.50292C143.132 6.95746 142.677 7.58815 142.365 8.39496C142.058 9.1961 141.905 10.1194 141.905 11.1649Z" fill="#FF8300"/>
<path d="M152.875 22.6109V4.61087H154.35V7.10803H154.529C154.71 6.71599 154.96 6.31542 155.279 5.90633C155.597 5.49155 156.017 5.14212 156.54 4.85803C157.068 4.57394 157.733 4.4319 158.534 4.4319C159.614 4.4319 160.557 4.71599 161.364 5.28417C162.176 5.84667 162.807 6.63644 163.256 7.65349C163.71 8.66485 163.938 9.84383 163.938 11.1904C163.938 12.5427 163.71 13.7274 163.256 14.7444C162.807 15.7614 162.176 16.5541 161.364 17.1222C160.557 17.6904 159.62 17.9745 158.551 17.9745C157.762 17.9745 157.1 17.8325 156.566 17.5484C156.037 17.2643 155.608 16.9149 155.279 16.5001C154.955 16.0796 154.705 15.6705 154.529 15.2728H154.392V22.6109H152.875ZM154.375 11.1649C154.375 12.2217 154.531 13.1592 154.844 13.9774C155.162 14.7899 155.617 15.4291 156.208 15.895C156.804 16.3552 157.526 16.5853 158.372 16.5853C159.242 16.5853 159.975 16.3467 160.571 15.8694C161.174 15.3864 161.631 14.7359 161.943 13.9177C162.262 13.0995 162.421 12.1819 162.421 11.1649C162.421 10.1592 162.264 9.25292 161.952 8.4461C161.645 7.63928 161.191 7.00008 160.588 6.52849C159.986 6.05121 159.247 5.81258 158.372 5.81258C157.52 5.81258 156.796 6.04269 156.199 6.50292C155.603 6.95746 155.148 7.58815 154.835 8.39496C154.529 9.1961 154.375 10.1194 154.375 11.1649Z" fill="#FF8300"/>
<path d="M166.863 0.247236V17.7018H165.346V0.247236H166.863Z" fill="#FF8300"/>
<path d="M168.974 17.7018V4.61087H170.5V17.7018H168.974ZM169.75 2.36087C169.437 2.36087 169.17 2.25576 168.949 2.04553C168.727 1.82962 168.616 1.5711 168.616 1.26996C168.616 0.968827 168.727 0.713145 168.949 0.502918C169.17 0.287008 169.437 0.179053 169.75 0.179053C170.062 0.179053 170.329 0.287008 170.551 0.502918C170.772 0.713145 170.883 0.968827 170.883 1.26996C170.883 1.5711 170.772 1.82962 170.551 2.04553C170.329 2.25576 170.062 2.36087 169.75 2.36087Z" fill="#FF8300"/>
<path d="M177.884 17.9745C176.663 17.9745 175.606 17.6904 174.714 17.1222C173.822 16.5484 173.132 15.7558 172.643 14.7444C172.16 13.7274 171.918 12.5569 171.918 11.233C171.918 9.91485 172.16 8.7444 172.643 7.72167C173.132 6.69326 173.805 5.88928 174.663 5.30974C175.526 4.72451 176.524 4.4319 177.654 4.4319C178.365 4.4319 179.049 4.56258 179.708 4.82394C180.367 5.07962 180.958 5.47451 181.481 6.0086C182.009 6.53701 182.427 7.20462 182.734 8.01144C183.041 8.81258 183.194 9.76144 183.194 10.858V11.608H172.967V10.27H181.643C181.643 9.42906 181.472 8.67337 181.132 8.00292C180.796 7.32678 180.328 6.79269 179.725 6.40065C179.129 6.0086 178.438 5.81258 177.654 5.81258C176.825 5.81258 176.095 6.03417 175.464 6.47735C174.833 6.92053 174.339 7.50576 173.981 8.23303C173.629 8.9603 173.45 9.75576 173.444 10.6194V11.4205C173.444 12.4603 173.623 13.3694 173.981 14.1478C174.345 14.9205 174.859 15.52 175.524 15.9461C176.188 16.3722 176.975 16.5853 177.884 16.5853C178.504 16.5853 179.046 16.4887 179.512 16.2955C179.984 16.1024 180.379 15.8438 180.697 15.52C181.021 15.1904 181.265 14.8296 181.43 14.4376L182.87 14.9063C182.671 15.4575 182.345 15.966 181.89 16.4319C181.441 16.8978 180.879 17.2728 180.203 17.5569C179.532 17.8353 178.759 17.9745 177.884 17.9745Z" fill="#FF8300"/>
<path d="M184.617 17.7018V4.61087H186.092V6.62224H186.202C186.464 5.96314 186.918 5.43189 187.566 5.02849C188.219 4.61939 188.958 4.41485 189.782 4.41485C189.907 4.41485 190.046 4.41769 190.199 4.42337C190.353 4.42905 190.481 4.43474 190.583 4.44042V5.98303C190.515 5.97167 190.396 5.95462 190.225 5.9319C190.055 5.90917 189.87 5.8978 189.671 5.8978C188.989 5.8978 188.381 6.04269 187.847 6.33246C187.319 6.61655 186.901 7.01144 186.594 7.51712C186.288 8.0228 186.134 8.59951 186.134 9.24724V17.7018H184.617Z" fill="#FF8300"/>
<path d="M196.397 17.7018V0.247236H202.031C203.269 0.247236 204.303 0.485872 205.133 0.963145C205.968 1.43474 206.596 2.07678 207.016 2.88928C207.443 3.70178 207.656 4.61655 207.656 5.6336C207.656 6.65065 207.445 7.56826 207.025 8.38644C206.605 9.19894 205.98 9.84383 205.15 10.3211C204.32 10.7927 203.289 11.0285 202.056 11.0285H197.624V9.59667H202.014C202.928 9.59667 203.687 9.42621 204.289 9.0853C204.891 8.73871 205.34 8.26712 205.636 7.67053C205.937 7.07394 206.087 6.39496 206.087 5.6336C206.087 4.87224 205.937 4.19326 205.636 3.59667C205.34 3.00008 204.889 2.53133 204.281 2.19042C203.678 1.84951 202.914 1.67905 201.988 1.67905H197.991V17.7018H196.397Z" fill="#FF8300"/>
<path d="M214.109 17.9745C212.979 17.9745 211.979 17.6876 211.109 17.1137C210.246 16.5399 209.569 15.7472 209.081 14.7359C208.592 13.7188 208.348 12.5455 208.348 11.216C208.348 9.87508 208.592 8.6961 209.081 7.67905C209.569 6.65633 210.246 5.86087 211.109 5.29269C211.979 4.71883 212.979 4.4319 214.109 4.4319C215.24 4.4319 216.237 4.71883 217.101 5.29269C217.964 5.86655 218.64 6.66201 219.129 7.67905C219.623 8.6961 219.871 9.87508 219.871 11.216C219.871 12.5455 219.626 13.7188 219.138 14.7359C218.649 15.7472 217.97 16.5399 217.101 17.1137C216.237 17.6876 215.24 17.9745 214.109 17.9745ZM214.109 16.5853C215.018 16.5853 215.788 16.341 216.419 15.8524C217.05 15.3637 217.527 14.7131 217.851 13.9006C218.18 13.0881 218.345 12.1933 218.345 11.216C218.345 10.2387 218.18 9.34099 217.851 8.5228C217.527 7.70462 217.05 7.04837 216.419 6.55405C215.788 6.05974 215.018 5.81258 214.109 5.81258C213.206 5.81258 212.436 6.05974 211.8 6.55405C211.169 7.04837 210.689 7.70462 210.359 8.5228C210.035 9.34099 209.873 10.2387 209.873 11.216C209.873 12.1933 210.035 13.0881 210.359 13.9006C210.689 14.7131 211.169 15.3637 211.8 15.8524C212.43 16.341 213.2 16.5853 214.109 16.5853Z" fill="#FF8300"/>
<path d="M221.281 17.7018V4.61087H222.755V6.62224H222.866C223.127 5.96314 223.582 5.43189 224.23 5.02849C224.883 4.61939 225.622 4.41485 226.446 4.41485C226.571 4.41485 226.71 4.41769 226.863 4.42337C227.017 4.42905 227.144 4.43474 227.247 4.44042V5.98303C227.179 5.97167 227.059 5.95462 226.889 5.9319C226.718 5.90917 226.534 5.8978 226.335 5.8978C225.653 5.8978 225.045 6.04269 224.511 6.33246C223.983 6.61655 223.565 7.01144 223.258 7.51712C222.951 8.0228 222.798 8.59951 222.798 9.24724V17.7018H221.281Z" fill="#FF8300"/>
<path d="M233.892 4.61087V5.9319H227.645V4.61087H233.892ZM229.597 1.47451H231.122V14.2842C231.122 14.8296 231.216 15.2586 231.403 15.5711C231.591 15.8779 231.835 16.0967 232.136 16.2274C232.438 16.3524 232.759 16.4149 233.099 16.4149C233.298 16.4149 233.469 16.4035 233.611 16.3808C233.753 16.3524 233.878 16.3239 233.986 16.2955L234.31 17.6677C234.162 17.7245 233.98 17.7756 233.764 17.8211C233.548 17.8722 233.281 17.8978 232.963 17.8978C232.406 17.8978 231.869 17.7756 231.352 17.5313C230.841 17.287 230.421 16.9234 230.091 16.4404C229.761 15.9575 229.597 15.358 229.597 14.6421V1.47451Z" fill="#FF8300"/>
<path d="M239.074 18.0001C238.284 18.0001 237.562 17.8467 236.909 17.5399C236.255 17.2274 235.736 16.7785 235.349 16.1933C234.963 15.6024 234.77 14.8864 234.77 14.0455C234.77 13.3978 234.892 12.8524 235.136 12.4092C235.38 11.966 235.727 11.6024 236.176 11.3183C236.625 11.0342 237.156 10.8097 237.77 10.645C238.383 10.4802 239.059 10.3523 239.798 10.2614C240.531 10.1705 241.15 10.091 241.656 10.0228C242.167 9.95462 242.557 9.84667 242.824 9.69894C243.091 9.55121 243.224 9.31258 243.224 8.98303V8.67621C243.224 7.78417 242.957 7.08246 242.423 6.5711C241.895 6.05405 241.133 5.79553 240.139 5.79553C239.196 5.79553 238.426 6.00292 237.829 6.41769C237.238 6.83246 236.824 7.3211 236.585 7.8836L235.145 7.36371C235.44 6.6478 235.849 6.07678 236.372 5.65065C236.895 5.21883 237.48 4.90917 238.128 4.72167C238.775 4.52849 239.432 4.4319 240.096 4.4319C240.596 4.4319 241.116 4.49724 241.656 4.62792C242.202 4.7586 242.707 4.98587 243.173 5.30974C243.639 5.62792 244.017 6.07394 244.307 6.6478C244.596 7.21599 244.741 7.93758 244.741 8.81258V17.7018H243.224V15.6308H243.13C242.949 16.0171 242.679 16.3921 242.321 16.7558C241.963 17.1194 241.514 17.4177 240.974 17.6506C240.434 17.8836 239.801 18.0001 239.074 18.0001ZM239.278 16.6109C240.085 16.6109 240.784 16.4319 241.375 16.0739C241.966 15.716 242.42 15.2416 242.738 14.6506C243.062 14.0541 243.224 13.3978 243.224 12.6819V10.7899C243.111 10.8978 242.92 10.9944 242.653 11.0796C242.392 11.1649 242.088 11.2416 241.741 11.3097C241.4 11.3722 241.059 11.4262 240.719 11.4717C240.378 11.5171 240.071 11.5569 239.798 11.591C239.059 11.6819 238.429 11.8239 237.906 12.0171C237.383 12.2103 236.983 12.4774 236.704 12.8183C236.426 13.1535 236.287 13.5853 236.287 14.1137C236.287 14.9092 236.571 15.5256 237.139 15.9631C237.707 16.395 238.42 16.6109 239.278 16.6109Z" fill="#FF8300"/>
<path d="M248.374 0.247236V17.7018H246.857V0.247236H248.374Z" fill="#FF8300"/>
</g>
<defs>
<clipPath id="clip0_1190_21476">
<rect width="110.822" height="23.5322" fill="white"/>
</clipPath>
<clipPath id="clip1_1190_21476">
<rect width="133.552" height="22.6108" fill="white" transform="translate(114.822 7.62939e-05)"/>
</clipPath>
</defs>
</svg>
